<svg width="14pt" height="38pt" viewBox="0 0 16 40" xmlns="http://www.w3.org/2000/svg"><g id="fontsvg1726346836364" stroke-linecap="round" fill-rule="evenodd" fill="#ea723c"><path d="M 4.524 24.048 L 2.143 7.857 A 4.937 4.937 0 0 0 1.995 7.166 Q 1.789 6.435 1.336 5.43 A 25.324 25.324 0 0 0 1 4.714 A 25.886 25.886 0 0 1 0.61 3.882 Q 0.099 2.732 0.016 2.154 A 1.436 1.436 0 0 1 0 1.952 A 1.788 1.788 0 0 1 0.054 1.506 A 1.449 1.449 0 0 1 0.214 1.119 A 1.38 1.38 0 0 1 0.456 0.825 Q 0.579 0.709 0.743 0.602 A 2.969 2.969 0 0 1 0.952 0.476 A 4.532 4.532 0 0 1 2.55 0.026 A 5.565 5.565 0 0 1 3.095 0 L 11.191 0 A 25.767 25.767 0 0 1 12.31 0.024 A 1.534 1.534 0 0 1 13.286 0.429 Q 13.714 0.81 13.714 1.333 A 1.266 1.266 0 0 1 13.691 1.558 Q 13.626 1.909 13.387 2.511 A 12.972 12.972 0 0 1 13.333 2.643 A 17.726 17.726 0 0 0 13.161 3.079 Q 12.994 3.519 12.91 3.827 A 3.352 3.352 0 0 0 12.857 4.048 L 11.429 13.333 Q 11.191 14.524 11 15.667 A 2.901 2.901 0 0 0 11.041 16.163 A 2.134 2.134 0 0 0 11.191 16.667 A 8.876 8.876 0 0 1 11.647 18.085 A 10.427 10.427 0 0 1 11.762 18.643 Q 11.952 19.714 11.952 20.619 Q 11.952 21.584 11.912 22.024 A 3.782 3.782 0 0 1 11.905 22.095 A 7.284 7.284 0 0 1 11.874 22.328 Q 11.777 22.988 11.429 25 A 22.258 22.258 0 0 0 11.44 25.685 Q 11.451 26.046 11.473 26.446 A 36.52 36.52 0 0 0 11.476 26.5 A 982.585 982.585 0 0 0 11.571 28.143 Q 11.571 28.714 11.5 29.214 Q 11.429 29.714 11 29.714 A 0.615 0.615 0 0 1 10.831 29.689 Q 10.709 29.654 10.571 29.571 Q 10.143 29.143 9.81 28.952 Q 9.542 28.799 9.304 28.769 A 0.906 0.906 0 0 0 9.191 28.762 Q 8.667 28.762 8.667 29.952 Q 8.667 30.19 8.905 32.619 A 18.714 18.714 0 0 1 9 34.42 A 17.197 17.197 0 0 1 9 34.476 A 20.696 20.696 0 0 1 8.996 34.921 Q 8.986 35.368 8.955 35.669 A 3.867 3.867 0 0 1 8.929 35.881 A 2.665 2.665 0 0 1 8.835 36.268 Q 8.741 36.565 8.571 36.905 Q 8.048 37.905 7.524 37.905 Q 6.454 37.905 5.538 31.828 A 83.77 83.77 0 0 1 5.333 30.381 Q 4.905 27.238 4.524 24.048 Z" vector-effect="non-scaling-stroke"/></g></svg>